HIERARCHY
ROOT Hips
{
	OFFSET 0.000000 0.000000 0.000000 
	CHANNELS 6 Xposition Yposition Zposition Yrotation Zrotation Xrotation 
	JOINT Lumbar
	{
		OFFSET 0.000000 0.000000 0.000000 
		CHANNELS 3 Zrotation Xrotation Yrotation
		JOINT Neck
		{
			OFFSET 0.000000 0.445665 0.000000 
			CHANNELS 3 Zrotation Xrotation Yrotation
			End Site
			{
				OFFSET 0.000000 0.227535 0.000000 
			}
		}
		JOINT RightShoulder
		{
			OFFSET 0.019635 0.377685 0.194865 
			CHANNELS 3 Zrotation Xrotation Yrotation
			JOINT RightElbow
			{
				OFFSET 0.000000 -0.243375 0.000000 
				CHANNELS 2 Zrotation Yrotation
				JOINT RightWrist
				{
					OFFSET 0.000000 -0.264825 0.000000 
					CHANNELS 2 Zrotation Xrotation
					End Site
					{
						OFFSET 0.006600 -0.176220 0.000990 
					}
				}
			}
		}
		JOINT LeftShoulder
		{
			OFFSET 0.019635 0.377685 -0.194865 
			CHANNELS 3 Zrotation Xrotation Yrotation
			JOINT LeftElbow
			{
				OFFSET 0.000000 -0.243375 0.000000 
				CHANNELS 2 Zrotation Yrotation
				JOINT LeftWrist
				{
					OFFSET 0.000000 -0.264825 0.000000 
					CHANNELS 2 Zrotation Xrotation
					End Site
					{
						OFFSET 0.006600 -0.176220 -0.000990 
					}
				}
			}
		}
	}
	JOINT RightHip
	{
		OFFSET 0.052140 -0.069960 0.075570 
		CHANNELS 3 Zrotation Xrotation Yrotation
		JOINT RightKnee
		{
			OFFSET 0.000000 -0.402270 0.000000 
			CHANNELS 1 Zrotation
			JOINT RightAnkle
			{
				OFFSET 0.000000 -0.404085 0.000000 
				CHANNELS 3 Zrotation Xrotation Yrotation
				End Site
				{
					OFFSET 0.204105 -0.089430 0.008415 
				}
			}
		}
	}
	JOINT LeftHip
	{
		OFFSET 0.052140 -0.069960 -0.075570 
		CHANNELS 3 Zrotation Xrotation Yrotation
		JOINT LeftKnee
		{
			OFFSET 0.000000 -0.402270 0.000000 
			CHANNELS 1 Zrotation
			JOINT LeftAnkle
			{
				OFFSET 0.000000 -0.404085 0.000000 
				CHANNELS 3 Zrotation Xrotation Yrotation
				End Site
				{
					OFFSET 0.204105 -0.089430 -0.008415 
				}
			}
		}
	}
}
MOTION
Frames: 22
Frame Time: 0.02
0.00113 0.00046 -0.00019 -179.39199 -42.30018 -1.82454 48.55032 2.39205 -4.12173 6.42803 -2.20879 -0.44405 -10.17921 -13.73678 -1.66313 36.95033 90.78553 4.02356 1.11126 -15.4569 15.59224 -1.81056 45.70489 -101.17366 9.66058 -1.81568 45.7767 -2.75645 -6.80689 -19.18314 -6.51116 -3.79874 -2.62529 49.21528 4.65126 1.90264 -24.861 -6.47847 3.27448 2.33785
0.0007 0.00037 -0.00016 -179.28599 -42.2268 -1.82655 48.5926 2.36569 -4.09106 6.25662 -2.18449 -0.44484 -10.70752 -13.6107 -1.8315 36.79783 90.80695 4.04611 1.11547 -15.8843 15.3933 -1.77552 45.68166 -101.13287 9.69469 -1.80238 45.65579 -2.74279 -6.81878 -19.19054 -6.50552 -3.79991 -2.62664 49.11553 4.66596 1.9057 -24.86466 -6.47239 3.2684 2.33312
0.00028 0.00027 -0.00013 -179.18021 -42.1536 -1.82856 48.63479 2.33939 -4.0604 6.08549 -2.1602 -0.44563 -11.23529 -13.48473 -1.99962 36.64565 90.82879 4.06875 1.11973 -16.31145 15.19472 -1.74077 45.65838 -101.09247 9.72893 -1.7891 45.53516 -2.72911 -6.83036 -19.19792 -6.49991 -3.80112 -2.62801 49.01601 4.68059 1.9086 -24.86831 -6.46634 3.26235 2.3284
-0.00015 0.00017 -0.0001 -179.07452 -42.08044 -1.83057 48.67695 2.31312 -4.02981 5.91457 -2.13597 -0.44642 -11.76216 -13.35903 -2.16741 36.4936 90.84993 4.09117 1.12389 -16.7377 14.99636 -1.70585 45.6352 -101.05184 9.76298 -1.77584 45.4146 -2.71548 -6.84216 -19.2053 -6.49429 -3.8023 -2.62936 48.91656 4.69524 1.9116 -24.87196 -6.46028 3.2563 2.32367
-0.00057 8e-05 -6e-05 -178.96865 -42.00712 -1.83256 48.71919 2.28679 -3.99924 5.74348 -2.11173 -0.44722 -12.28916 -13.23324 -2.33566 36.34128 90.87129 4.11367 1.12809 -17.16385 14.79773 -1.67058 45.61211 -101.01072 9.79683 -1.76255 45.2938 -2.7019 -6.8544 -19.21269 -6.48864 -3.80342 -2.63068 48.8169 4.70997 1.91488 -24.87563 -6.4542 3.25021 2.31893
-0.001 -2e-05 -3e-05 -178.86308 -41.93415 -1.83461 48.76127 2.26054 -3.96836 5.57228 -2.08735 -0.44801 -12.8185 -13.10684 -2.50365 36.18939 90.8946 4.13677 1.13255 -17.59307 14.59927 -1.63694 45.58845 -100.97184 9.83187 -1.74931 45.17356 -2.68799 -6.86461 -19.22005 -6.48312 -3.80483 -2.63217 48.7177 4.72441 1.91699 -24.87925 -6.44818 3.24424 2.31426
-0.00142 -0.00012 -0 -178.75702 -41.86057 -1.83655 48.80364 2.23418 -3.93816 5.40147 -2.06329 -0.4488 -13.34258 -12.98208 -2.67118 36.03683 90.91179 4.158 1.13617 -18.01557 14.40068 -1.60002 45.56597 -100.92848 9.86446 -1.73598 45.05231 -2.67476 -6.87883 -19.22747 -6.47734 -3.80566 -2.63332 48.61767 4.73938 1.92133 -24.88296 -6.44205 3.23805 2.30944
-0.00185 -0.00021 3e-05 -178.65141 -41.78756 -1.83859 48.84572 2.20792 -3.90732 5.23031 -2.03892 -0.44959 -13.87145 -12.85531 -2.84059 35.88484 90.9386 4.18209 1.14113 -18.44437 14.20223 -1.56619 45.54237 -100.88928 9.89935 -1.72273 44.93201 -2.66092 -6.88946 -19.23484 -6.4718 -3.80701 -2.63478 48.51843 4.75391 1.92383 -24.88659 -6.43602 3.23204 2.30476
-0.00227 -0.00031 6e-05 -178.5463 -41.71516 -1.84076 48.88753 2.18177 -3.87573 5.05857 -2.01419 -0.45038 -14.40683 -12.72793 -3.00665 35.73363 90.96147 4.2052 1.14548 -18.88085 14.00377 -1.5359 45.51749 -100.85508 9.93696 -1.70956 44.81272 -2.64626 -6.89525 -19.24213 -6.46656 -3.80908 -2.63664 48.42002 4.76773 1.9232 -24.8901 -6.43012 3.22633 2.30028
-0.00271 -0.00041 0.0001 -178.43815 -41.639 -1.8422 48.93118 2.15492 -3.84854 4.88973 -1.9916 -0.45118 -14.90674 -12.60959 -3.175 35.5782 90.95981 4.22051 1.1466 -19.2731 13.80479 -1.48454 45.50024 -100.79187 9.95865 -1.6959 44.68716 -2.63607 -6.92753 -19.24982 -6.45961 -3.80723 -2.63628 48.31642 4.7851 1.9379 -24.89422 -6.42352 3.21914 2.29473
-0.00311 -0.0005 0.00013 -178.33655 -41.57092 -1.84518 48.97073 2.12962 -3.81201 4.71507 -1.96448 -0.45196 -15.48008 -12.4687 -3.34935 35.43152 91.04002 4.26084 1.15884 -19.75856 13.6073 -1.47806 45.46674 -100.79001 10.01407 -1.68331 44.57512 -2.61662 -6.90479 -19.25669 -6.45626 -3.81354 -2.64052 48.22403 4.79535 1.92201 -24.89711 -6.41837 3.21493 2.29136
-0.00343 -0.00054 0.00016 -178.25194 -41.52404 -1.8524 49.0008 2.10807 -3.74997 4.52169 -1.92498 -0.4527 -16.26894 -12.29611 -3.44476 35.31049 91.08209 4.29522 1.16394 -20.50358 13.41052 -1.59194 45.38943 -100.95747 10.1621 -1.67354 44.49819 -2.57018 -6.72244 -19.26113 -6.46297 -3.84321 -2.6581 48.16054 4.78258 1.80648 -24.89629 -6.41732 3.22001 2.29481
-0.0037 -0.00056 0.00019 -178.17412 -41.48546 -1.86118 49.02645 2.08818 -3.67853 4.32298 -1.88095 -0.45342 -17.12897 -12.09689 -3.55909 35.1981 91.24249 4.36496 1.18539 -21.34131 13.21582 -1.75106 45.29575 -101.18667 10.34406 -1.66494 44.4352 -2.51477 -6.48654 -19.2648 -6.47326 -3.88086 -2.68016 48.10865 4.76322 1.66282 -24.89429 -6.41772 3.2279 2.3003
-0.00399 -0.00059 0.00022 -178.09377 -41.44367 -1.86925 49.05295 2.06784 -3.61125 4.12851 -1.83893 -0.45414 -17.94722 -11.88808 -3.73319 35.08048 91.53644 4.47181 1.22626 -22.13448 13.02239 -1.89174 45.20893 -101.38658 10.51042 -1.6558 44.36709 -2.46445 -6.28063 -19.26897 -6.48182 -3.91423 -2.69973 48.05264 4.74924 1.54274 -24.89305 -6.41738 3.23376 2.30429
-0.00432 -0.00062 0.00026 -178.01093 -41.39946 -1.87732 49.08423 2.0462 -3.54433 3.92636 -1.79702 -0.45489 -18.80532 -11.76414 -3.63843 34.96774 91.09164 4.36899 1.16122 -22.93899 12.81972 -2.02496 45.12415 -101.59051 10.6774 -1.64641 44.29384 -2.40971 -6.05029 -19.2725 -6.49087 -3.95044 -2.72127 47.99178 4.72551 1.37839 -24.89089 -6.41735 3.24272 2.31066
-0.00455 -0.00065 0.00028 -177.93509 -41.36232 -1.88574 49.1046 2.0277 -3.47458 3.73895 -1.75391 -0.45559 -19.59747 -11.46545 -4.08342 34.84771 92.14857 4.69276 1.31133 -23.74073 12.63664 -2.18268 45.03168 -101.80235 10.85138 -1.63816 44.23464 -2.36221 -5.85873 -19.27716 -6.49971 -3.98254 -2.73971 47.94378 4.7201 1.29788 -24.89032 -6.41705 3.24596 2.31263
-0.00455 -0.00067 0.0003 -177.87516 -41.34218 -1.89499 49.09524 2.01697 -3.39802 3.59348 -1.70778 -0.45617 -20.18713 -10.6172 -6.23405 34.69841 97.90125 6.35015 2.1344 -24.52029 12.50582 -2.40475 44.91827 -102.01638 11.03739 -1.63135 44.21046 -2.33555 -5.78227 -19.2855 -6.5074 -4.00211 -2.7489 47.92825 4.77055 1.47055 -24.89482 -6.41547 3.23215 2.30118
-0.00447 -0.00069 0.0003 -177.82241 -41.32895 -1.9045 49.07515 2.00943 -3.31918 3.46312 -1.66075 -0.45672 -20.70782 -9.60609 -8.89158 34.54282 105.06741 8.40899 3.15997 -25.29159 12.393 -2.64359 44.79844 -102.2438 11.23127 -1.62701 44.20003 -2.31672 -5.74746 -19.29494 -6.51469 -4.01711 -2.75473 47.92529 4.83897 1.72584 -24.9009 -6.41361 3.21261 2.28537
-0.00442 -0.0007 0.00031 -177.76745 -41.31285 -1.91377 49.06047 2.00075 -3.24228 3.3258 -1.61465 -0.45728 -21.2628 -8.71985 -11.16597 34.39465 111.18935 10.17116 4.03589 -26.06217 12.2752 -2.87576 44.68395 -102.4595 11.41809 -1.62105 44.18349 -2.29524 -5.69716 -19.30365 -6.52193 -4.03367 -2.76181 47.91665 4.89675 1.93358 -24.90602 -6.41197 3.19604 2.27202
-0.00437 -0.00073 0.00032 -177.70808 -41.29588 -1.92362 49.04353 1.99083 -3.16128 3.18837 -1.56618 -0.45783 -21.81049 -7.62473 -14.06373 34.22737 118.95361 12.40026 5.14731 -26.8578 12.15174 -3.12534 44.55848 -102.67349 11.6118 -1.61266 44.16673 -2.26976 -5.63127 -19.31332 -6.53027 -4.05267 -2.77017 47.90822 4.96476 2.18247 -24.91211 -6.40997 3.17794 2.25667
-0.00431 -0.00073 0.00033 -177.65975 -41.28228 -1.93228 49.02864 1.98423 -3.08836 3.05525 -1.52251 -0.4584 -22.35272 -6.91789 -15.81117 34.09849 123.70449 13.77247 5.82655 -27.59445 12.03455 -3.31717 44.4548 -102.92811 11.80387 -1.61563 44.15366 -2.25442 -5.60742 -19.32126 -6.5362 -4.06543 -2.77506 47.90227 5.01581 2.36578 -24.91659 -6.40865 3.16174 2.24447
-0.00428 -0.0007 0.00036 -177.63796 -41.27593 -1.9377 49.02313 1.98583 -3.03869 2.92703 -1.49214 -0.45899 -22.92465 -7.3976 -14.01316 34.07522 119.14616 12.49783 5.17109 -28.20123 12.02093 -3.57368 44.41088 -102.97191 11.88545 -1.59664 44.14595 -2.26647 -5.69877 -19.32406 -6.53524 -4.06162 -2.77073 47.89928 5.01557 2.34625 -24.9161 -6.40915 3.15127 2.24171
